<?xml version="1.0" encoding="UTF-8" standalone="no"?>
<!-- Created with Inkscape (http://www.inkscape.org/) -->

<svg
   version="1.1"
   id="svg2"
   width="1388.4746"
   height="1388.4746"
   viewBox="0 0 1388.4746 1388.4746"
   sodipodi:docname="angular.svg"
   inkscape:version="1.1.2 (b8e25be833, 2022-02-05)"
   xmlns:inkscape="http://www.inkscape.org/namespaces/inkscape"
   xmlns:sodipodi="http://sodipodi.sourceforge.net/DTD/sodipodi-0.dtd"
   xmlns="http://www.w3.org/2000/svg"
   xmlns:svg="http://www.w3.org/2000/svg">
  <defs
     id="defs6" />
  <sodipodi:namedview
     id="namedview4"
     pagecolor="#ffffff"
     bordercolor="#666666"
     borderopacity="1.0"
     inkscape:pageshadow="2"
     inkscape:pageopacity="0.0"
     inkscape:pagecheckerboard="0"
     showgrid="false"
     inkscape:snap-page="true"
     inkscape:snap-text-baseline="true"
     inkscape:snap-center="true"
     inkscape:snap-object-midpoints="true"
     inkscape:snap-midpoints="true"
     inkscape:snap-smooth-nodes="true"
     inkscape:object-paths="true"
     inkscape:snap-intersection-paths="true"
     inkscape:snap-bbox="true"
     inkscape:bbox-paths="true"
     inkscape:bbox-nodes="true"
     inkscape:snap-bbox-edge-midpoints="true"
     inkscape:snap-bbox-midpoints="true"
     inkscape:zoom="0.10478206"
     inkscape:cx="-839.83846"
     inkscape:cy="472.40914"
     inkscape:window-width="1281"
     inkscape:window-height="1032"
     inkscape:window-x="-1920"
     inkscape:window-y="0"
     inkscape:window-maximized="0"
     inkscape:current-layer="g8" />
  <g
     inkscape:groupmode="layer"
     inkscape:label="Image"
     id="g8">
    <circle
       style="fill:#df2e31;stroke:none;stroke-width:6;fill-opacity:1"
       id="path849"
       cx="694.2373"
       cy="694.2373"
       r="694.2373" />
    <path
       style="fill:#df2e31;fill-opacity:1;stroke-width:13.8624"
       d="m 395.06868,1004.5311 c 0,-0.6595 56.23003,-127.25978 124.95564,-281.33389 68.72561,-154.07411 135.96195,-304.82366 149.41406,-334.99911 13.45212,-30.17546 24.71566,-54.6073 25.0301,-54.29277 0.31443,0.31442 65.26381,146.12651 144.33196,324.02685 79.06815,177.90044 146.20043,328.91357 149.18287,335.58487 l 5.42262,12.12965 h -54.96726 -54.96724 l -10.57239,-25.99206 c -5.81478,-14.29566 -19.66519,-48.61385 -30.77866,-76.26266 l -20.20632,-50.27071 -128.51521,0.5969 -128.51523,0.59689 -30.17743,75.08824 -30.17743,75.0882 -54.73004,0.6195 c -30.10152,0.3407 -54.73004,0.079 -54.73004,-0.5799 z M 783.21712,761.94572 c 0,-1.36722 -85.32062,-206.772 -87.68585,-211.0989 -1.04355,-1.90902 -18.83946,38.11152 -45.95923,103.35602 -24.34094,58.55926 -44.25629,107.00684 -44.25629,107.66125 0,0.65442 40.02781,1.18982 88.95068,1.18982 48.92288,0 88.95069,-0.49861 88.95069,-1.10819 z"
       id="path2381" />
    <path
       style="fill:#ffffff;fill-opacity:1;stroke-width:13.8624"
       d="M 672.25862,1238.0309 C 660.21916,1231.2384 569.2734,1180.785 470.15691,1125.9123 371.04044,1071.0396 289.15153,1025.3649 288.18155,1024.413 286.8647,1023.1206 217.53352,432.46247 214.27835,394.80394 l -0.57665,-6.67121 77.39865,-27.63506 C 618.88006,243.46418 691.39654,217.79778 694.2768,217.79778 c 1.80566,0 16.0579,4.61073 31.67163,10.24609 15.61373,5.63535 117.80137,42.08218 227.08363,80.99289 109.28224,38.91071 203.89344,72.66085 210.24714,75.00031 8.6568,3.18754 11.424,5.32664 11.0413,8.53539 -0.2809,2.35504 -3.1821,28.19468 -6.4471,57.42134 -3.2651,29.22665 -7.9352,70.29409 -10.3781,91.26105 -2.443,20.96696 -5.5051,47.47883 -6.8048,58.91542 -29.7638,261.90327 -48.8914,422.82013 -50.4316,424.27003 -1.7165,1.616 -31.8574,18.3802 -256.97118,142.9267 -71.79592,39.7218 -134.72328,74.6499 -139.83859,77.6178 l -9.30057,5.3964 z m -136.2473,-306.33666 30.52177,-76.26285 127.25969,0.59699 127.25969,0.59709 30.17849,75.08823 30.17847,75.0882 57.18259,0.618 c 31.45041,0.3398 57.18261,0.017 57.18261,-0.7193 0,-1.2699 -289.26758,-652.96216 -297.4139,-670.04524 -3.84791,-8.06912 -3.896,-8.08975 -6.62577,-2.84464 -1.51234,2.90594 -45.63063,101.45417 -98.04067,218.99615 -52.41003,117.54197 -119.0611,267.0005 -148.11348,332.12997 -29.0524,65.12946 -52.82254,119.45296 -52.82254,120.71876 0,1.4655 20.47397,2.3015 56.36562,2.3015 h 56.36565 z"
       id="path2695" />
    <path
       style="fill:#ffffff;fill-opacity:1;stroke-width:13.8624"
       d="m 609.7684,755.54517 c 7.25012,-18.58567 78.84564,-189.39347 81.54646,-194.54813 l 3.33168,-6.35872 4.80965,11.21386 c 2.6453,6.16766 21.63866,51.76159 42.20748,101.31987 20.56881,49.55828 37.87438,90.88562 38.4568,91.83868 0.58242,0.95306 -37.96481,1.73278 -85.6605,1.73278 h -86.71944 z"
       id="path2734" />
  </g>
</svg>
