<?xml version="1.0" encoding="UTF-8" standalone="no"?>
<!-- Created with Inkscape (http://www.inkscape.org/) -->

<svg
   version="1.1"
   id="svg2"
   width="1388.4746"
   height="1388.4746"
   viewBox="0 0 1388.4746 1388.4746"
   sodipodi:docname="node.svg"
   inkscape:version="1.1.2 (b8e25be833, 2022-02-05)"
   xmlns:inkscape="http://www.inkscape.org/namespaces/inkscape"
   xmlns:sodipodi="http://sodipodi.sourceforge.net/DTD/sodipodi-0.dtd"
   xmlns="http://www.w3.org/2000/svg"
   xmlns:svg="http://www.w3.org/2000/svg">
  <defs
     id="defs6">
    <clipPath
       id="a">
      <path
         id="path2"
         d="m 239.03,226.605 -42.13,24.317 c -1.578,0.91 -2.546,2.59 -2.546,4.406 v 48.668 c 0,1.817 0.968,3.496 2.546,4.406 l 42.133,24.336 c 1.575,0.907 3.517,0.907 5.09,0 l 42.126,-24.336 c 1.57,-0.91 2.54,-2.59 2.54,-4.406 v -48.668 c 0,-1.816 -0.97,-3.496 -2.55,-4.406 l -42.12,-24.317 c -0.79,-0.453 -1.67,-0.68 -2.55,-0.68 -0.88,0 -1.76,0.227 -2.55,0.68" />
    </clipPath>
    <linearGradient
       gradientUnits="userSpaceOnUse"
       gradientTransform="matrix(-38.064915,77.652126,-77.652126,-38.064915,258.72325,244.62943)"
       x2="1.251"
       x1="-0.34799999"
       id="b">
      <stop
         id="stop5"
         stop-color="#3E863D"
         offset=".3" />
      <stop
         id="stop7"
         stop-color="#55934F"
         offset=".5" />
      <stop
         id="stop9"
         stop-color="#5AAD45"
         offset=".8" />
    </linearGradient>
    <clipPath
       id="c">
      <path
         id="path12"
         d="m 195.398,307.086 c 0.403,0.523 0.907,0.976 1.5,1.316 l 36.14,20.875 6.02,3.46 c 0.9,0.52 1.926,0.74 2.934,0.665 0.336,-0.027 0.672,-0.09 1,-0.183 l 44.434,-81.36 c -0.34,-0.37 -0.738,-0.68 -1.184,-0.94 l -27.586,-15.93 -14.582,-8.39 c -0.414,-0.24 -0.863,-0.41 -1.32,-0.53 z m 0,0" />
    </clipPath>
    <linearGradient
       gradientUnits="userSpaceOnUse"
       gradientTransform="matrix(106.8057,-78.916731,78.916731,106.8057,235.18824,285.39477)"
       x2="0.58200002"
       x1="-0.456"
       id="d">
      <stop
         id="stop15"
         stop-color="#3E863D"
         offset=".57" />
      <stop
         id="stop17"
         stop-color="#619857"
         offset=".72" />
      <stop
         id="stop19"
         stop-color="#76AC64"
         offset="1" />
    </linearGradient>
    <clipPath
       id="e">
      <path
         id="path22"
         d="m 241.066,225.953 c -0.707,0.07 -1.398,0.29 -2.035,0.652 l -42.01,24.247 45.3,82.51 c 0.63,-0.09 1.25,-0.3 1.81,-0.624 l 42.13,-24.336 c 1.3,-0.754 2.19,-2.03 2.46,-3.476 l -46.18,-78.89 c -0.34,-0.067 -0.68,-0.102 -1.03,-0.102 -0.14,0 -0.28,0.007 -0.42,0.02" />
    </clipPath>
    <linearGradient
       gradientUnits="userSpaceOnUse"
       gradientTransform="matrix(97.417,0,0,97.417,192.862,279.652)"
       x2="0.98400003"
       x1="0.043000001"
       id="f">
      <stop
         id="stop25"
         stop-color="#6BBF47"
         offset=".16" />
      <stop
         id="stop27"
         stop-color="#79B461"
         offset=".38" />
      <stop
         id="stop29"
         stop-color="#75AC64"
         offset=".47" />
      <stop
         id="stop31"
         stop-color="#659E5A"
         offset=".7" />
      <stop
         id="stop33"
         stop-color="#3E863D"
         offset=".9" />
    </linearGradient>
    <clipPath
       id="a-8">
      <path
         id="path2-1"
         d="m 239.03,226.605 -42.13,24.317 c -1.578,0.91 -2.546,2.59 -2.546,4.406 v 48.668 c 0,1.817 0.968,3.496 2.546,4.406 l 42.133,24.336 c 1.575,0.907 3.517,0.907 5.09,0 l 42.126,-24.336 c 1.57,-0.91 2.54,-2.59 2.54,-4.406 v -48.668 c 0,-1.816 -0.97,-3.496 -2.55,-4.406 l -42.12,-24.317 c -0.79,-0.453 -1.67,-0.68 -2.55,-0.68 -0.88,0 -1.76,0.227 -2.55,0.68" />
    </clipPath>
    <linearGradient
       gradientUnits="userSpaceOnUse"
       gradientTransform="matrix(-38.064915,77.652126,-77.652126,-38.064915,258.72325,244.62943)"
       x2="1.251"
       x1="-0.34799999"
       id="b-7">
      <stop
         id="stop5-0"
         stop-color="#3E863D"
         offset=".3" />
      <stop
         id="stop7-1"
         stop-color="#55934F"
         offset=".5" />
      <stop
         id="stop9-4"
         stop-color="#5AAD45"
         offset=".8" />
    </linearGradient>
    <clipPath
       id="c-2">
      <path
         id="path12-4"
         d="m 195.398,307.086 c 0.403,0.523 0.907,0.976 1.5,1.316 l 36.14,20.875 6.02,3.46 c 0.9,0.52 1.926,0.74 2.934,0.665 0.336,-0.027 0.672,-0.09 1,-0.183 l 44.434,-81.36 c -0.34,-0.37 -0.738,-0.68 -1.184,-0.94 l -27.586,-15.93 -14.582,-8.39 c -0.414,-0.24 -0.863,-0.41 -1.32,-0.53 z m 0,0" />
    </clipPath>
    <linearGradient
       gradientUnits="userSpaceOnUse"
       gradientTransform="matrix(106.8057,-78.916731,78.916731,106.8057,235.18824,285.39477)"
       x2="0.58200002"
       x1="-0.456"
       id="d-0">
      <stop
         id="stop15-0"
         stop-color="#3E863D"
         offset=".57" />
      <stop
         id="stop17-3"
         stop-color="#619857"
         offset=".72" />
      <stop
         id="stop19-2"
         stop-color="#76AC64"
         offset="1" />
    </linearGradient>
    <clipPath
       id="e-6">
      <path
         id="path22-8"
         d="m 241.066,225.953 c -0.707,0.07 -1.398,0.29 -2.035,0.652 l -42.01,24.247 45.3,82.51 c 0.63,-0.09 1.25,-0.3 1.81,-0.624 l 42.13,-24.336 c 1.3,-0.754 2.19,-2.03 2.46,-3.476 l -46.18,-78.89 c -0.34,-0.067 -0.68,-0.102 -1.03,-0.102 -0.14,0 -0.28,0.007 -0.42,0.02" />
    </clipPath>
    <linearGradient
       gradientUnits="userSpaceOnUse"
       gradientTransform="matrix(97.417,0,0,97.417,192.862,279.652)"
       x2="0.98400003"
       x1="0.043000001"
       id="f-3">
      <stop
         id="stop25-7"
         stop-color="#6BBF47"
         offset=".16" />
      <stop
         id="stop27-7"
         stop-color="#79B461"
         offset=".38" />
      <stop
         id="stop29-2"
         stop-color="#75AC64"
         offset=".47" />
      <stop
         id="stop31-9"
         stop-color="#659E5A"
         offset=".7" />
      <stop
         id="stop33-8"
         stop-color="#3E863D"
         offset=".9" />
    </linearGradient>
    <clipPath
       id="a-7">
      <path
         id="path2-5"
         d="m 239.03,226.605 -42.13,24.317 c -1.578,0.91 -2.546,2.59 -2.546,4.406 v 48.668 c 0,1.817 0.968,3.496 2.546,4.406 l 42.133,24.336 c 1.575,0.907 3.517,0.907 5.09,0 l 42.126,-24.336 c 1.57,-0.91 2.54,-2.59 2.54,-4.406 v -48.668 c 0,-1.816 -0.97,-3.496 -2.55,-4.406 l -42.12,-24.317 c -0.79,-0.453 -1.67,-0.68 -2.55,-0.68 -0.88,0 -1.76,0.227 -2.55,0.68" />
    </clipPath>
    <linearGradient
       gradientUnits="userSpaceOnUse"
       gradientTransform="matrix(-38.064915,77.652126,-77.652126,-38.064915,258.72325,244.62943)"
       x2="1.251"
       x1="-0.34799999"
       id="b-3">
      <stop
         id="stop5-5"
         stop-color="#3E863D"
         offset=".3" />
      <stop
         id="stop7-0"
         stop-color="#55934F"
         offset=".5" />
      <stop
         id="stop9-1"
         stop-color="#5AAD45"
         offset=".8" />
    </linearGradient>
    <clipPath
       id="c-5">
      <path
         id="path12-46"
         d="m 195.398,307.086 c 0.403,0.523 0.907,0.976 1.5,1.316 l 36.14,20.875 6.02,3.46 c 0.9,0.52 1.926,0.74 2.934,0.665 0.336,-0.027 0.672,-0.09 1,-0.183 l 44.434,-81.36 c -0.34,-0.37 -0.738,-0.68 -1.184,-0.94 l -27.586,-15.93 -14.582,-8.39 c -0.414,-0.24 -0.863,-0.41 -1.32,-0.53 z m 0,0" />
    </clipPath>
    <linearGradient
       gradientUnits="userSpaceOnUse"
       gradientTransform="matrix(106.8057,-78.916731,78.916731,106.8057,235.18824,285.39477)"
       x2="0.58200002"
       x1="-0.456"
       id="d-8">
      <stop
         id="stop15-5"
         stop-color="#3E863D"
         offset=".57" />
      <stop
         id="stop17-0"
         stop-color="#619857"
         offset=".72" />
      <stop
         id="stop19-6"
         stop-color="#76AC64"
         offset="1" />
    </linearGradient>
    <clipPath
       id="e-2">
      <path
         id="path22-3"
         d="m 241.066,225.953 c -0.707,0.07 -1.398,0.29 -2.035,0.652 l -42.01,24.247 45.3,82.51 c 0.63,-0.09 1.25,-0.3 1.81,-0.624 l 42.13,-24.336 c 1.3,-0.754 2.19,-2.03 2.46,-3.476 l -46.18,-78.89 c -0.34,-0.067 -0.68,-0.102 -1.03,-0.102 -0.14,0 -0.28,0.007 -0.42,0.02" />
    </clipPath>
    <linearGradient
       gradientUnits="userSpaceOnUse"
       gradientTransform="matrix(97.417,0,0,97.417,192.862,279.652)"
       x2="0.98400003"
       x1="0.043000001"
       id="f-7">
      <stop
         id="stop25-3"
         stop-color="#6BBF47"
         offset=".16" />
      <stop
         id="stop27-6"
         stop-color="#79B461"
         offset=".38" />
      <stop
         id="stop29-7"
         stop-color="#75AC64"
         offset=".47" />
      <stop
         id="stop31-5"
         stop-color="#659E5A"
         offset=".7" />
      <stop
         id="stop33-9"
         stop-color="#3E863D"
         offset=".9" />
    </linearGradient>
  </defs>
  <sodipodi:namedview
     id="namedview4"
     pagecolor="#ffffff"
     bordercolor="#666666"
     borderopacity="1.0"
     inkscape:pageshadow="2"
     inkscape:pageopacity="0.0"
     inkscape:pagecheckerboard="0"
     showgrid="false"
     inkscape:snap-page="true"
     inkscape:snap-text-baseline="true"
     inkscape:snap-center="true"
     inkscape:snap-object-midpoints="true"
     inkscape:snap-midpoints="true"
     inkscape:snap-smooth-nodes="true"
     inkscape:object-paths="true"
     inkscape:snap-intersection-paths="true"
     inkscape:snap-bbox="true"
     inkscape:bbox-paths="true"
     inkscape:bbox-nodes="true"
     inkscape:snap-bbox-edge-midpoints="true"
     inkscape:snap-bbox-midpoints="true"
     inkscape:zoom="0.05239103"
     inkscape:cx="524.89902"
     inkscape:cy="-381.74474"
     inkscape:window-width="1920"
     inkscape:window-height="1009"
     inkscape:window-x="-8"
     inkscape:window-y="-8"
     inkscape:window-maximized="1"
     inkscape:current-layer="g8"
     inkscape:snap-global="true" />
  <g
     inkscape:groupmode="layer"
     inkscape:label="Image"
     id="g8">
    <circle
       style="fill:#55ce99;stroke:none;stroke-width:6;fill-opacity:1"
       id="path849"
       cx="694.2373"
       cy="694.2373"
       r="694.2373" />
    <g
       id="g7269"
       transform="matrix(2.3179308,0,0,2.3179308,100.84711,100.81997)"
       style="fill:#ffffff">
      <path
         d="M 429.76,130.07 274.33,36.85 a 37,37 0 0 0 -36.65,0 L 82.24,130.06 A 38.2,38.2 0 0 0 64,162.83 V 349 a 38.26,38.26 0 0 0 18.24,32.8 l 40.76,24.34 0.23,0.13 c 20.58,10.53 28.46,10.53 37.59,10.53 32.14,0 52.11,-20.8 52.11,-54.29 V 182 a 8.51,8.51 0 0 0 -8.42,-8.58 h -22.38 a 8.51,8.51 0 0 0 -8.42,8.58 v 180.51 a 15,15 0 0 1 -6.85,13.07 c -5.9,3.6 -14.47,2.84 -24.14,-2.15 L 103.66,349.92 A 1.1,1.1 0 0 1 103.18,349 V 165.46 a 1.32,1.32 0 0 1 0.59,-1.06 l 151.84,-93 a 0.82,0.82 0 0 1 0.73,0 l 151.93,93 a 1.34,1.34 0 0 1 0.55,1.1 V 349 a 1.28,1.28 0 0 1 -0.45,1 l -152.06,90.65 a 1.22,1.22 0 0 1 -0.8,0 l -38.83,-23.06 a 7.8,7.8 0 0 0 -7.83,-0.41 l -0.34,0.2 c -10.72,6.35 -13.6,8 -23.54,11.62 -1.62,0.59 -5.43,2 -5.76,5.77 -0.33,3.77 3.29,6.45 6.51,8.32 l 51.9,31.87 a 35.67,35.67 0 0 0 18.3,5.07 h 0.58 v 0 a 35.87,35.87 0 0 0 17.83,-5.07 L 429.76,381.83 A 38.37,38.37 0 0 0 448,349 V 162.83 a 38.21,38.21 0 0 0 -18.24,-32.76 z"
         id="path7257"
         style="fill:#ffffff" />
      <path
         d="m 307.88,318.05 c -37.29,0 -45.24,-10.42 -47.6,-27.24 a 8.43,8.43 0 0 0 -8.22,-7.32 h -19.8 a 8.44,8.44 0 0 0 -8.26,8.58 c 0,14.58 5.12,62.17 83.92,62.17 v 0 c 24.38,0 44.66,-5.7 58.63,-16.49 C 380.52,326.96 388,311.26 388,292.55 388,255 363.5,244.72 315.25,238 266.2,231.18 266.2,227.71 266.2,220.11 c 0,-5.47 0,-18.28 35.46,-18.28 25.23,0 38.74,3.19 43.06,20 a 8.35,8.35 0 0 0 8.06,6.67 h 19.87 a 8.24,8.24 0 0 0 6.16,-2.86 8.91,8.91 0 0 0 2.12,-6.44 c -2.57,-35.55 -28.56,-53.58 -79.24,-53.58 -46.06,0 -73.55,20.75 -73.55,55.5 0,38.1 28.49,48.87 71.29,53.33 50,5.17 50,12.71 50,19.37 0.03,10.38 -4.28,24.23 -41.55,24.23 z"
         id="path7259"
         style="fill:#ffffff" />
    </g>
  </g>
</svg>
