<svg width="505" height="505" viewBox="0 0 505 505" fill="none" xmlns="http://www.w3.org/2000/svg">
<circle cx="252.5" cy="252.5" r="252.5" fill="#A91D22"/>
<g opacity="0.15">
<path d="M302.537 238.147L219.61 265.226L147.465 297.067L127.282 302.396C122.141 307.285 116.752 312.237 110.922 317.252C104.529 322.767 98.5742 327.782 93.9977 331.417C88.921 335.429 81.3992 342.951 77.576 347.713C71.8718 354.859 67.3589 362.443 65.4157 368.273C61.968 378.804 63.6612 389.459 70.3051 399.301C78.8296 411.836 95.8164 424.623 115.623 433.335C125.715 437.787 142.701 443.49 155.488 446.686C176.736 452.077 217.855 457.907 240.482 458.785C245.057 458.973 251.2 458.973 251.45 458.785C251.952 458.47 255.463 451.764 259.537 443.428C273.453 415.033 283.481 388.394 288.934 365.641C292.193 351.852 294.763 333.486 296.455 311.737C296.894 305.656 297.082 285.285 296.706 278.39C296.141 267.108 295.138 257.957 293.572 248.993C293.321 247.677 293.258 246.486 293.384 246.423C293.634 246.235 294.386 245.985 304.603 243.038L302.536 238.15V238.148H302.537V238.147ZM283.607 249.243C284.359 249.243 286.364 268.485 286.866 280.646C286.992 283.216 286.928 284.908 286.803 284.908C286.302 284.908 276.21 278.954 269.003 274.441C262.735 270.492 250.826 262.594 248.945 261.09C248.317 260.651 248.38 260.589 253.52 258.833C262.232 255.887 282.918 249.243 283.607 249.243ZM241.36 263.158C241.925 263.158 243.366 263.972 246.813 266.104C259.725 274.189 277.276 283.968 284.798 287.228C287.117 288.231 287.367 287.854 282.04 291.49C270.632 299.262 256.402 306.909 238.977 314.619C235.906 315.998 233.337 317.063 233.274 317.063C233.15 317.063 233.524 315.497 234.025 313.616C238.225 298.007 240.607 282.212 240.733 269.551C240.796 263.282 240.796 263.282 241.36 263.095C241.234 263.158 241.297 263.158 241.36 263.158ZM232.648 266.48C233.023 266.855 232.773 280.896 232.271 284.72C231.143 293.871 229.388 302.395 226.506 311.986C225.816 314.304 225.188 316.248 225.064 316.373C224.812 316.686 216.225 308.287 213.404 305.028C208.515 299.387 204.692 293.745 201.872 288.23C200.43 285.409 198.174 279.894 198.361 279.705C199.364 279.016 232.397 266.229 232.648 266.48ZM191.654 282.588C191.717 282.588 191.779 282.588 191.843 282.651C191.968 282.776 192.407 283.78 192.783 284.907C194.788 290.361 199.301 298.384 203.188 303.524C207.45 309.165 213.029 315.182 217.666 319.131C219.171 320.385 220.55 321.575 220.737 321.764C221.114 322.14 221.239 322.077 211.022 325.963C199.177 330.476 186.264 334.989 171.471 339.753C167.937 340.892 164.406 342.041 160.879 343.2C160.314 343.389 160.503 343.075 162.132 340.506C169.466 329.035 180.622 306.533 186.891 290.611C187.956 287.853 189.022 285.096 189.21 284.469C189.461 283.591 189.774 283.278 190.588 282.839C191.027 282.714 191.467 282.588 191.654 282.588ZM179.119 287.791C179.307 287.917 176.11 294.623 172.976 300.766C166.896 312.612 160.252 324.272 151.351 338.437C149.847 340.881 148.406 343.138 148.217 343.389C147.904 343.828 147.778 343.702 146.776 341.759C144.644 337.56 142.889 332.169 141.949 327.217C141.008 322.327 141.197 313.803 142.263 308.538C143.077 304.653 143.015 304.715 144.895 303.775C152.918 299.701 178.868 287.54 179.119 287.791ZM287.243 292.179V294.812C287.243 308.789 285.738 327.969 283.544 341.948C283.168 344.392 282.853 346.397 282.792 346.461C282.792 346.461 280.974 345.96 278.843 345.332C269.441 342.386 259.224 338.061 250.01 332.985C243.929 329.662 235.092 324.208 235.343 323.958C235.404 323.895 238.038 322.516 241.108 320.886C253.395 314.493 265.178 307.599 275.395 300.766C279.219 298.196 284.985 294.06 286.24 292.931L287.243 292.179ZM131.794 310.731C132.045 310.731 131.982 311.233 131.606 313.49C131.355 315.12 131.042 318.128 130.918 320.196C130.415 329.348 131.921 336.118 136.433 345.394C137.687 347.964 138.69 350.095 138.627 350.157C138.188 350.534 96.6942 362.695 83.6558 366.267C79.7699 367.332 76.3857 368.272 76.1337 368.334C75.6958 368.46 75.6328 368.398 75.8207 367.331C77.2621 358.118 84.2827 346.083 94.0605 335.929C100.58 329.159 105.782 325.211 114.683 320.133C121.076 316.498 130.917 311.046 131.669 310.794C131.67 310.731 131.732 310.731 131.794 310.731ZM229.576 328.219C229.639 328.157 231.143 328.972 232.961 330.038C246.374 337.81 265.053 345.019 280.973 348.716L282.416 349.03L280.409 350.157C272.073 354.796 244.682 366.204 216.664 376.672C212.589 378.175 208.578 379.68 207.825 379.993C207.073 380.306 206.383 380.495 206.383 380.433C206.383 380.369 207.512 378.175 208.953 375.481C216.788 360.813 224.686 342.95 228.698 330.539C229.2 329.348 229.513 328.283 229.576 328.219ZM219.61 331.479C219.674 331.543 219.172 332.858 218.544 334.362C213.092 347.588 205.945 362.005 196.794 378.177C194.476 382.314 192.532 385.636 192.468 385.636C192.407 385.636 190.526 384.507 188.269 383.128C174.98 374.98 163.197 364.951 155.488 355.235L154.359 353.856L160.063 352.289C180.497 346.711 197.859 340.694 215.096 333.298C217.541 332.295 219.548 331.479 219.61 331.479ZM281.539 353.104C281.601 354.546 278.404 367.458 275.771 376.797C273.578 384.632 271.696 390.775 268.25 401.618C266.746 406.383 265.43 410.331 265.367 410.331C265.304 410.331 264.928 410.268 264.552 410.144C245.936 406.758 229.263 402.057 213.593 395.789C209.205 394.034 202.937 391.213 202.561 390.9C202.436 390.773 206.197 389.019 210.961 386.951C239.48 374.477 269.065 360.311 279.219 354.232C280.41 353.48 281.35 353.104 281.539 353.104ZM138.564 357.993C138.69 358.118 130.729 369.589 119.572 385.197C115.686 390.65 111.173 397.043 109.481 399.425C107.788 401.807 105.219 405.568 103.777 407.824L101.143 411.899L98.3224 409.517C95.0001 406.758 89.2343 400.867 86.6644 397.607C81.2735 390.901 77.6387 383.818 76.197 377.363C75.5073 374.353 75.5073 372.848 76.1334 372.661C77.0734 372.411 93.8093 368.462 109.48 364.825C118.193 362.82 128.284 360.439 131.919 359.561C135.555 358.682 138.502 357.993 138.564 357.993ZM146.587 361.065L148.592 363.321C157.619 373.413 166.833 380.873 177.99 387.39C179.997 388.519 181.5 389.522 181.374 389.585C180.937 389.898 142.638 403.499 124.9 409.642C114.934 413.152 106.722 415.972 106.66 415.972C106.598 415.972 106.033 415.597 105.406 415.158L104.278 414.343L106.096 411.71C111.987 403.186 119.385 393.847 135.493 374.416L146.587 361.065ZM196.607 396.855C196.669 396.793 199.427 397.795 202.811 399.05C210.961 402.121 217.415 404.063 226.066 406.257C236.722 408.953 252.141 411.586 261.23 412.337C262.609 412.462 263.362 412.588 263.111 412.776C262.671 413.027 253.458 416.099 246.688 418.23C235.906 421.614 203 431.329 176.173 439.04C171.221 440.481 166.958 441.672 166.708 441.734C166.082 441.86 164.012 441.295 164.012 441.045C164.012 440.92 165.517 438.977 167.335 436.846C176.36 426.064 185.324 414.03 192.783 402.622C194.851 399.487 196.607 396.918 196.607 396.855ZM185.574 397.169C185.637 397.231 181.187 404.377 173.415 416.662C170.092 421.864 166.394 427.756 165.078 429.825C163.824 431.83 161.944 434.965 160.879 436.72L159.061 439.917L158.121 439.666C155.863 439.039 140.006 433.46 135.806 431.768C130.603 429.699 125.213 427.193 121.201 425.061C116.187 422.366 109.919 418.354 110.42 418.229C110.545 418.167 119.133 415.847 129.475 413.027C156.929 405.567 172.16 401.242 182.127 398.109C183.945 397.544 185.512 397.105 185.574 397.169ZM263.612 415.471H263.674C263.925 416.098 253.771 444.304 250.072 453.204C249.258 455.21 248.945 455.712 248.506 455.649C247.44 455.587 232.711 453.518 223.746 452.202C208.14 449.82 181.939 445.244 175.358 443.74L173.854 443.427L183.192 441.294C203.25 436.782 212.903 434.337 222.681 431.329C235.029 427.568 247.253 422.867 259.6 417.101C261.543 416.223 263.173 415.533 263.612 415.471Z" fill="url(#paint0_linear_6_10)"/>
<path d="M217.041 44.8408C215.662 44.6538 193.409 52.6768 179.056 58.5053C159.687 66.404 144.645 73.9261 135.368 80.4434C131.921 82.889 127.595 87.2134 126.906 88.9055C126.656 89.5324 126.53 90.2845 126.53 91.0366L134.929 98.9971L154.924 105.39L202.499 113.915L256.905 123.255L257.469 118.554C257.282 118.554 257.156 118.491 256.969 118.491L249.822 117.363L248.381 114.793C240.985 101.755 232.836 85.5835 228.073 74.677C224.375 66.215 220.865 56.4378 218.921 49.4172C217.855 45.155 217.73 44.9044 217.042 44.842V44.8405H217.041V44.8408ZM216.036 48.0385H216.101C216.162 48.1003 216.413 49.8566 216.664 51.9238C217.729 60.7003 219.674 69.1609 222.745 78.3126C225.063 85.2077 225.063 84.832 222.368 84.0166C215.975 82.2621 187.33 77.3102 166.583 74.427C163.261 73.9879 160.44 73.5494 160.44 73.487C160.189 73.2364 175.42 65.2753 182.127 62.1421C190.714 58.1923 214.282 48.3515 216.036 48.0385ZM155.613 76.119L158.058 76.933C171.346 81.4467 204.754 87.8403 223.183 89.3445C225.251 89.5327 227.006 89.7211 227.068 89.7211C227.13 89.7836 225.377 90.7238 223.119 91.7889C214.22 96.2393 204.441 101.693 197.671 105.893C195.666 107.146 193.848 108.149 193.598 108.149C193.347 108.149 192.031 107.898 190.652 107.71L188.145 107.333L181.878 101.19C170.846 90.4726 162.195 82.1991 158.873 79.0644L155.613 76.119ZM153.106 78.0617L161.944 89.0939C166.77 95.1739 171.659 101.128 172.726 102.444C173.79 103.761 174.668 104.827 174.606 104.89C174.355 105.077 161.82 102.632 155.175 101.129C148.343 99.5613 145.522 98.8092 141.323 97.4935L137.875 96.3648V95.4867C137.937 91.2869 143.266 85.0193 152.292 78.6265L153.106 78.0617ZM228.197 93.1053C228.448 93.1053 228.761 93.6692 229.513 95.3615C231.644 100.062 238.29 112.724 239.918 115.169C240.421 115.984 241.297 116.047 232.46 114.605C211.212 111.157 204.379 110.03 204.379 109.904C204.379 109.842 205.006 109.403 205.82 108.964C212.402 105.329 219.046 100.69 224.938 95.7381C226.38 94.547 227.696 93.4189 227.946 93.2304C228.009 93.1053 228.135 93.0428 228.197 93.1053Z" fill="url(#paint1_linear_6_10)"/>
<path d="M127.344 88.0279C127.344 88.0279 125.966 90.2226 127.282 93.4822C128.098 95.4873 130.479 97.9314 133.174 100.439C133.174 100.439 161.066 127.642 164.451 131.529C179.87 149.33 186.577 166.88 187.204 191.075C187.58 206.62 184.634 220.284 177.301 236.143C164.263 264.6 136.746 296.003 94.3113 330.854L100.518 328.785C104.529 325.776 109.982 322.58 122.769 315.559C152.291 299.387 185.512 284.532 226.254 269.238C284.922 247.174 381.388 221.349 436.295 212.951L442 212.073L441.122 210.694C436.108 202.921 432.66 198.095 428.523 192.955C416.489 178.037 401.885 165.94 384.02 155.911C359.45 142.185 327.67 131.467 287.43 123.506C279.846 122.001 263.172 119.118 249.634 117.05C220.926 112.6 202.372 109.528 181.939 106.018C174.606 104.764 163.636 102.884 156.365 101.318C152.604 100.502 145.397 98.8098 139.755 96.8669C135.242 95.1109 128.723 93.3559 127.344 88.0279ZM143.517 103.699C143.578 103.637 144.581 104.012 145.898 104.451C148.28 105.265 151.351 106.205 154.988 107.209C157.739 107.966 160.497 108.697 163.261 109.402C167.022 110.342 170.155 111.22 170.218 111.22C170.657 111.659 176.988 131.903 179.119 139.676C179.933 142.623 180.561 145.129 180.499 145.129C180.434 145.193 179.746 144.127 178.931 142.685C171.597 129.773 160.001 116.673 146.587 106.142C144.833 104.89 143.517 103.761 143.517 103.699ZM174.355 112.223C174.669 112.223 176.048 112.411 177.739 112.787C188.395 115.169 207.513 118.804 219.735 120.873C221.804 121.186 223.434 121.563 223.434 121.688C223.434 121.814 222.681 122.252 221.741 122.754C219.673 123.819 211.336 128.77 208.579 130.651C201.621 135.289 195.353 140.303 190.84 144.816C189.022 146.634 187.455 148.139 187.455 148.139C187.455 148.139 187.08 147.073 186.765 145.756C184.51 137.044 179.808 124.131 175.546 115.043C174.856 113.602 174.292 112.285 174.292 112.16C174.292 112.286 174.292 112.223 174.355 112.223ZM228.636 122.565C229.012 122.69 229.639 124.822 230.892 129.522C233.212 138.612 234.278 148.766 233.902 158.23C233.776 160.863 233.651 163.307 233.525 163.621L233.337 164.247L230.078 163.182C223.371 161.051 212.465 157.854 203.126 155.222C197.797 153.78 193.473 152.464 193.473 152.339C193.473 151.962 201.246 144.19 204.568 141.244C210.897 135.665 228.072 122.377 228.636 122.565ZM232.961 123.191C233.149 123.004 258.911 127.454 270.632 129.711C279.346 131.403 292.007 134.036 292.758 134.349C293.134 134.474 291.818 135.226 287.618 137.107C271.071 144.566 258.785 151.272 246.563 159.421C243.367 161.552 240.671 163.307 240.609 163.307C240.546 163.307 240.483 161.49 240.483 159.296C240.483 147.387 238.101 135.352 233.713 125.198C233.274 124.195 232.898 123.255 232.961 123.191ZM299.59 136.355C299.779 136.543 298.963 141.621 298.211 144.629C295.955 153.968 289.875 167.822 282.417 180.858C281.099 183.178 279.909 185.058 279.783 185.12C279.659 185.183 277.966 184.242 276.022 183.114C268.752 178.852 260.478 174.841 251.452 171.079C248.945 170.014 246.751 169.136 246.688 169.012C246.249 168.635 266.432 155.284 277.088 148.891C285.55 143.751 299.339 136.104 299.59 136.355ZM304.354 137.107C304.918 137.107 316.326 140.241 322.28 141.996C337.01 146.384 353.933 152.589 364.965 157.604L369.54 159.673L366.345 160.424C339.393 166.629 316.326 173.776 294.074 182.801C292.256 183.554 290.626 184.181 290.502 184.181C290.376 184.181 291.003 182.739 291.818 180.983C298.525 166.755 302.85 151.9 303.915 139.238C303.978 138.047 304.165 137.107 304.354 137.107ZM190.777 163.182C190.965 162.994 199.678 165.063 204.379 166.378C211.524 168.385 226.693 173.461 226.693 173.838C226.693 173.9 225.001 175.342 222.996 177.097C214.785 183.93 206.886 191.137 197.421 200.289C194.6 202.985 192.219 205.178 192.094 205.178C191.968 205.178 191.906 204.801 191.968 204.3C193.409 193.77 193.097 180.231 191.091 166.504C190.902 164.748 190.715 163.245 190.777 163.182ZM373.867 163.371C373.991 163.495 369.855 170.014 367.223 173.712C363.462 179.102 357.945 186.249 345.471 201.919C338.891 210.192 331.494 219.532 329.05 222.666C326.542 225.8 324.474 228.432 324.411 228.432C324.348 228.432 323.535 227.304 322.657 225.926C315.636 215.395 307.236 206.181 297.27 197.907C295.39 196.34 293.323 194.647 292.633 194.146C291.943 193.645 291.379 193.143 291.379 193.081C291.379 192.893 302.033 188.316 310.121 185.058C324.287 179.291 343.59 172.396 358.071 167.946C365.655 165.564 373.741 163.245 373.867 163.371ZM378.693 164.624C378.943 164.561 380.448 165.313 382.266 166.378C397.497 175.091 412.414 186.311 424.199 197.844C427.521 201.104 435.732 209.629 435.606 209.691C435.606 209.691 432.723 209.942 429.339 210.192C402.95 212.199 369.166 217.776 336.697 225.611C334.504 226.112 332.561 226.551 332.435 226.551C332.311 226.551 334.755 224.107 337.827 221.161C356.881 202.796 365.594 191.2 375.873 170.515C377.314 167.445 378.568 164.812 378.693 164.624C378.63 164.624 378.63 164.624 378.693 164.624ZM239.103 178.916C239.982 179.103 248.13 182.927 254.272 185.998C259.914 188.818 268.376 193.332 268.815 193.707C268.877 193.77 265.868 195.337 262.171 197.155C250.386 203.047 240.295 208.625 229.764 215.018C226.756 216.836 224.249 218.341 224.186 218.341C223.935 218.341 223.998 218.089 225.69 215.018C231.332 204.74 235.844 192.454 238.415 180.482C238.665 179.542 238.916 178.916 239.103 178.916ZM230.955 180.419C231.143 180.608 229.012 188.317 227.696 192.517C225.126 200.477 220.801 210.443 216.602 217.965C215.598 219.719 214.094 222.289 213.279 223.731L211.713 226.238L208.202 222.854C204.129 218.905 200.806 216.46 196.544 214.266C194.851 213.389 193.535 212.636 193.535 212.512C193.535 212.01 204.254 202.295 212.465 195.275C218.356 190.197 230.767 180.231 230.955 180.419ZM280.787 200.916L283.859 202.921C290.877 207.498 299.151 213.577 305.483 218.905C309.055 221.85 315.949 228.056 317.329 229.561L318.08 230.376L313.004 231.817C284.296 239.777 262.108 246.86 236.22 256.388C233.337 257.453 230.892 258.331 230.704 258.331C230.329 258.331 230.015 258.644 236.471 252.689C253.019 237.459 267.686 220.66 278.593 204.3L280.787 200.916ZM267.686 204.175C267.811 204.3 259.224 216.397 254.084 223.23C247.942 231.378 237.035 245.042 229.513 253.942C226.38 257.641 223.685 260.712 223.559 260.775C223.371 260.838 223.308 259.898 223.308 258.456C223.308 250.871 221.366 242.785 217.98 235.891C216.539 233.008 216.288 232.318 216.602 232.005C217.793 230.939 236.033 220.534 247.566 214.329C255.338 210.192 267.497 204.05 267.686 204.175ZM188.458 223.606C188.646 223.606 190.088 224.358 191.718 225.236C195.729 227.429 199.302 229.874 202.498 232.507C202.623 232.632 200.994 233.949 198.863 235.515C192.908 239.777 183.883 246.61 178.618 250.81C173.101 255.197 172.914 255.322 173.54 254.382C177.678 248.052 179.745 244.479 181.94 239.903C183.883 235.83 185.825 231.003 187.204 226.803C187.706 224.985 188.333 223.606 188.458 223.606ZM209.582 240.153C209.894 240.092 210.271 240.655 211.963 243.163C215.536 248.489 218.294 255.636 218.984 261.402L219.108 262.657L210.522 265.979C195.165 271.933 181 277.825 171.408 282.212C168.714 283.466 164.013 285.722 160.942 287.228C157.87 288.794 155.363 289.985 155.363 289.922C155.363 289.86 157.306 288.418 159.687 286.663C178.43 273.062 194.664 258.143 206.823 243.225C208.14 241.658 209.331 240.216 209.456 240.154L209.582 240.153ZM199.866 242.536C200.117 242.786 192.972 250.872 188.083 255.823C175.985 268.172 164.013 277.825 149.158 287.228C147.277 288.418 145.585 289.483 145.397 289.609C144.958 289.86 145.522 289.233 152.041 282.15C156.178 277.699 159.312 273.939 162.884 269.301C165.266 266.23 165.705 265.791 169.153 263.345C178.367 256.701 199.616 242.285 199.866 242.536Z" fill="url(#paint2_radial_6_10)"/>
</g>
<path d="M115.661 225.216C115.001 225.216 114.34 225.279 113.686 225.279C100.347 225.991 91.35 231.875 86.0898 243.364C81.5909 253.755 82.0821 267.338 86.1403 277.793C90.8594 288.009 98.4848 293.4 111.213 295.437C113.906 295.879 115.712 297.361 120.928 303.464L127.346 311H138.985L131.246 303.18C126.967 298.893 123.507 295.159 123.507 294.831C123.507 294.503 125.143 293.785 127.124 293.179C133.656 291.199 139.079 286.142 142.873 278.392C145.944 272.168 146.384 270.245 146.824 262.501C147.976 239.454 135.851 225.044 115.661 225.209L115.661 225.216ZM125.866 285.487C120.204 288.236 111.981 288.785 106.614 286.811C101.064 284.768 95.6914 278.992 93.2748 272.453C90.5884 265.302 90.972 252.11 94.0425 246.17C98.9815 236.711 105.513 232.36 115.057 232.36C129.214 232.36 137.267 241.05 138.318 257.382C139.149 271.015 134.593 281.243 125.873 285.481L125.866 285.487ZM326.94 244.902C322.058 244.902 318.321 246.883 315.803 250.785L313.828 253.876V245.842H305.378V294.019H313.822V278.62C313.822 264.539 313.998 262.893 315.961 259.04C318.667 253.755 323.322 251.12 327.821 252.382L330.841 253.264V244.915H326.94V244.902ZM277.298 244.461C275.643 244.461 273.887 244.682 272.139 245.067C260.832 248.03 254.459 258.876 254.849 270.037C254.849 279.383 256.66 284.055 261.16 288.955C270.377 296.535 278.714 297.14 289.963 293.073C291.882 292.253 293.971 291.307 293.971 291.307V283.728L289.963 285.809C280.859 289.781 274.001 289.781 268.508 285.102C265.004 281.527 263.462 277.239 262.751 272.346H296.821V265.85C296.821 252.608 288.869 244.246 277.291 244.461H277.298ZM263.519 265.586C263.519 265.586 264.777 257.325 269.446 254.084C271.693 252.494 274.272 251.725 276.794 251.725C279.324 251.725 281.847 252.545 283.929 254.141C288.208 257.439 288.925 265.523 288.925 265.523H263.519V265.586H263.519ZM59.8087 256.897C50.6481 251.334 46.5835 247.324 47.0805 242.594C48.5022 229.51 64.6348 231.32 73.5688 236.27L73.6323 227.467C73.6323 227.467 68.693 225.323 61.6145 225.21C50.7549 225.046 43.7332 228.614 40.443 235.879C35.6104 246.599 39.8894 254.682 55.355 263.7C64.0374 268.764 67.8751 273.159 67.8751 277.951C67.8751 287.852 55.9649 291.307 43.6772 285.096C41.1483 283.835 39.0088 282.781 38.8957 282.781C38.455 285.588 38.6822 292.303 38.6822 292.303C38.6822 292.303 42.4574 293.893 48.1195 294.989C62.1623 297.795 74.9415 291.193 76.1493 280.473C77.2002 270.409 73.5691 265.131 59.8092 256.889L59.8087 256.897ZM401.725 244.348C400.076 244.348 398.327 244.574 396.502 244.959C385.209 247.923 378.847 258.769 379.281 269.931C379.281 279.264 381.087 283.892 385.586 288.785C394.804 296.371 403.14 296.982 414.447 292.909C416.359 292.09 418.442 291.157 418.442 291.157V283.565L414.441 285.658C405.318 289.618 398.459 289.618 392.986 284.939C389.462 281.37 387.933 277.132 387.222 272.182H421.236V265.687C421.236 252.508 413.282 244.14 401.705 244.361L401.725 244.348ZM387.945 265.472C387.945 265.472 389.216 257.224 393.878 253.919C396.119 252.325 398.698 251.555 401.221 251.555C403.738 251.555 406.273 252.375 408.357 253.976C412.635 257.274 413.353 265.415 413.353 265.415H387.952L387.945 265.472ZM233.066 257.004C223.906 251.454 219.853 247.431 220.344 242.701C221.766 229.61 237.899 231.427 246.833 236.377L246.896 227.574C246.896 227.574 241.957 225.43 234.878 225.329C224.019 225.165 216.997 228.734 213.701 235.998C208.875 246.718 213.21 254.802 228.625 263.82C237.295 268.878 241.133 273.216 241.133 278.008C241.133 287.908 229.229 291.421 216.941 285.152C214.424 283.891 212.285 282.85 212.159 282.85C211.718 285.656 211.946 292.373 211.946 292.373C211.946 292.373 215.676 293.905 221.32 295.058C235.376 297.871 248.161 291.275 249.363 280.555C250.407 270.541 246.783 265.263 233.067 257.015V257.004H233.066ZM451.373 244.789C446.491 244.789 442.71 246.775 440.237 250.679L438.261 253.756V245.735H429.811V293.899H438.255V278.501C438.255 264.426 438.424 262.773 440.394 258.927C443.1 253.649 447.755 251.007 452.254 252.274L455.274 253.157V244.789L451.373 244.789ZM165.87 256.726V226.041H157.351V294.006H193.177V285.979H165.87V256.726H165.87ZM362.879 266.292L355.857 284.604L349.106 266.191L342.248 245.785H333.528C339.178 261.84 345.324 278.172 351.522 294.006C354.209 294.069 356.902 294.006 359.588 294.006L369.07 270.145L378.728 245.791H370.392C370.392 245.791 366.71 255.465 362.873 266.298L362.879 266.292ZM185.5 207.521C186.872 207.521 188.017 207.08 188.961 206.134C189.892 205.201 190.382 204.103 190.382 202.729C190.382 201.354 189.892 200.206 188.961 199.323C188.017 198.441 186.928 197.999 185.563 197.999C184.179 197.999 183.034 198.441 182.102 199.374C181.159 200.307 180.731 201.455 180.731 202.779C180.731 204.167 181.172 205.314 182.102 206.185C182.984 207.067 184.129 207.509 185.5 207.509V207.521ZM182.48 199.702C183.298 198.883 184.292 198.504 185.563 198.504C186.759 198.504 187.753 198.883 188.584 199.702C189.402 200.522 189.842 201.518 189.842 202.729C189.842 203.939 189.402 204.987 188.584 205.806C187.753 206.625 186.759 207.016 185.563 207.016C184.349 207.016 183.361 206.638 182.543 205.806C181.726 204.987 181.285 203.939 181.285 202.729C181.285 201.518 181.663 200.522 182.48 199.702ZM184.512 203.171H185.066C185.456 203.171 185.84 203.549 186.167 204.268L186.828 205.755H187.866L187.048 204.103C186.715 203.441 186.388 203.057 186.004 202.949C186.488 202.835 186.872 202.672 187.149 202.343C187.425 202.06 187.526 201.675 187.526 201.24C187.526 200.736 187.369 200.357 187.036 200.08C186.658 199.765 186.054 199.594 185.274 199.594H183.525V205.755H184.406V203.17L184.512 203.171ZM184.512 200.307H185.28C185.834 200.307 186.224 200.421 186.438 200.585C186.646 200.749 186.702 200.963 186.702 201.354C186.702 202.066 186.261 202.401 185.444 202.401H184.5V200.307H184.512ZM43.7895 202.622C43.7895 200.478 43.7268 198.883 43.6763 197.943H43.7268C43.9467 199.052 44.2174 199.879 44.4376 200.427L52.6167 218.739H53.9885L62.1675 200.263C62.3883 199.759 62.6085 199.002 62.8789 197.949H62.9416C62.7782 199.778 62.7217 201.367 62.7217 202.634V218.796H65.5209V194.771H62.0102L54.4919 211.481C54.2148 212.143 53.8309 213.134 53.3403 214.445H53.2266C53.0632 213.796 52.6793 212.805 52.1321 211.595L44.7829 194.714H41.0523V218.739H43.7451V202.633L43.7895 202.622ZM71.6559 202.666H74.0725V217.63H71.6559V202.666ZM72.8641 197.18C73.3677 197.18 73.7954 197.009 74.1224 196.676C74.4561 196.347 74.6766 195.919 74.6766 195.414C74.6766 194.922 74.5126 194.481 74.1291 194.153C73.7893 193.819 73.355 193.648 72.858 193.648C72.3676 193.648 71.9272 193.819 71.5993 194.153C71.2668 194.481 71.046 194.922 71.046 195.414C71.046 195.963 71.2161 196.347 71.5993 196.676C71.9777 197.009 72.3673 197.18 72.858 197.18H72.8641ZM91.2995 217.958V215.322C89.9779 216.312 88.556 216.804 87.0838 216.804C85.3226 216.804 83.8937 216.199 82.8492 215.039C81.8114 213.891 81.2578 212.295 81.2578 210.309C81.2578 208.228 81.8114 206.575 82.9563 205.314C84.0573 204.104 85.486 203.498 87.2352 203.498C88.6633 203.498 90.0342 203.94 91.2998 204.823V202.017C90.1485 201.412 88.8336 201.134 87.3484 201.134C84.6048 201.134 82.4662 202.017 80.8681 203.72C79.2822 205.423 78.4643 207.737 78.4643 210.531C78.4643 213.015 79.1752 215.102 80.6543 216.698C82.1955 218.337 84.1656 219.17 86.5813 219.17C88.4492 219.118 89.9779 218.727 91.2995 217.958ZM98.2138 209.981C98.2138 208.007 98.6543 206.412 99.4722 205.314C100.24 204.324 101.171 203.826 102.272 203.826C103.203 203.826 103.864 203.996 104.348 204.381V201.518C103.971 201.354 103.423 201.298 102.712 201.298C101.725 201.298 100.844 201.631 100.07 202.244C99.2522 202.892 98.598 203.883 98.2141 205.144H98.1515V201.631H95.4146V218.783H98.1575V209.981H98.2138ZM113.962 219.124C116.542 219.124 118.618 218.291 120.16 216.64C121.695 214.999 122.462 212.793 122.462 210.043C122.462 207.238 121.758 205.094 120.323 203.497C118.902 201.903 116.926 201.133 114.346 201.133C111.766 201.133 109.689 201.902 108.148 203.39C106.5 205.031 105.632 207.345 105.632 210.315C105.632 212.9 106.336 215.045 107.822 216.64C109.356 218.291 111.389 219.118 113.962 219.118V219.124ZM110.061 205.15C111.106 204.047 112.478 203.498 114.176 203.498C115.938 203.498 117.259 204.047 118.241 205.15C119.229 206.304 119.72 207.95 119.72 210.151C119.72 212.244 119.279 213.89 118.348 214.994C117.417 216.148 116.045 216.759 114.233 216.759C112.471 216.759 111.106 216.147 110.061 214.994C109.024 213.833 108.526 212.244 108.526 210.151C108.419 208.07 108.967 206.368 110.061 205.15ZM134.474 217.63C135.518 216.697 136.072 215.549 136.072 214.111C136.072 212.849 135.631 211.803 134.814 210.977C134.146 210.315 133.115 209.716 131.624 209.11C130.302 208.556 129.484 208.063 129.044 207.679C128.604 207.237 128.333 206.689 128.333 205.913C128.333 205.201 128.61 204.652 129.151 204.211C129.705 203.77 130.41 203.556 131.354 203.556C132.832 203.556 134.097 203.946 135.254 204.772V202.023C134.147 201.469 132.945 201.204 131.573 201.204C129.812 201.204 128.327 201.69 127.232 202.628C126.08 203.562 125.533 204.773 125.533 206.197C125.533 207.458 125.91 208.506 126.627 209.274C127.231 209.93 128.264 210.599 129.698 211.198C131.07 211.803 132.001 212.352 132.498 212.793C132.988 213.235 133.208 213.783 133.208 214.433C133.208 216.034 132.114 216.861 129.975 216.861C128.326 216.861 126.848 216.318 125.526 215.221V218.184C126.721 218.904 128.156 219.231 129.742 219.231C131.774 219.124 133.365 218.626 134.46 217.636L134.474 217.63ZM147.536 201.133C144.956 201.133 142.88 201.903 141.338 203.391C139.702 205.031 138.821 207.345 138.821 210.315C138.821 212.901 139.533 215.045 141.011 216.64C142.553 218.292 144.578 219.118 147.158 219.118C149.801 219.118 151.814 218.286 153.356 216.633C154.897 214.994 155.665 212.787 155.665 210.037C155.665 207.231 154.947 205.088 153.525 203.492C152.041 201.897 150.065 201.127 147.548 201.127L147.536 201.133ZM152.858 210.151C152.858 212.244 152.418 213.89 151.487 214.994C150.556 216.148 149.184 216.759 147.372 216.759C145.609 216.759 144.244 216.147 143.2 214.994C142.162 213.834 141.665 212.244 141.665 210.151C141.665 207.944 142.213 206.242 143.314 205.094C144.351 203.996 145.724 203.441 147.428 203.441C149.127 203.441 150.493 203.996 151.48 205.094C152.361 206.304 152.852 207.95 152.852 210.151H152.858ZM160.271 218.733H163.007V203.883H167.015V201.575H163.007V198.927C163.007 196.518 163.938 195.307 165.864 195.307C166.512 195.307 167.172 195.471 167.663 195.749V193.271C167.172 193.05 166.512 193 165.687 193C164.209 193 163.001 193.442 162.013 194.375C160.861 195.472 160.251 196.897 160.251 198.827V201.64H157.356V203.947H160.251V218.741L160.271 218.733ZM171.513 214.054C171.513 217.409 172.993 219.118 176.012 219.118C177.107 219.118 177.931 218.942 178.592 218.551V216.192C178.089 216.571 177.491 216.748 176.831 216.748C175.9 216.748 175.245 216.526 174.861 216.028C174.471 215.537 174.251 214.704 174.251 213.556V203.877H178.592V201.569H174.251V196.512C173.307 196.84 172.382 197.117 171.507 197.394V201.568H168.55V203.877H171.507V214.048L171.513 214.054ZM465.97 245.671C465.039 244.789 463.938 244.347 462.573 244.347C461.189 244.347 460.043 244.789 459.112 245.735C458.181 246.662 457.74 247.815 457.74 249.14C457.74 250.515 458.181 251.663 459.105 252.545C460.037 253.428 461.181 253.87 462.566 253.87C463.931 253.87 465.083 253.428 466.027 252.495C466.952 251.549 467.442 250.458 467.442 249.09C467.392 247.702 466.895 246.554 465.964 245.672L465.97 245.671ZM465.53 252.167C464.712 252.986 463.718 253.365 462.51 253.365C461.315 253.365 460.321 252.986 459.49 252.167C458.672 251.334 458.231 250.294 458.231 249.077C458.231 247.878 458.609 246.883 459.439 246.05C460.257 245.231 461.246 244.852 462.51 244.852C463.705 244.852 464.7 245.231 465.53 246.05C466.348 246.883 466.788 247.878 466.788 249.077C466.788 250.351 466.411 251.334 465.53 252.167ZM463.063 249.361C463.554 249.247 463.944 249.026 464.215 248.755C464.492 248.471 464.593 248.086 464.593 247.646C464.593 247.154 464.435 246.763 464.102 246.492C463.725 246.176 463.115 246.006 462.341 246.006H460.592V252.16H461.473V249.575H462.02C462.398 249.575 462.775 249.953 463.115 250.672L463.769 252.154H464.814L463.996 250.501C463.713 249.782 463.385 249.454 463.053 249.347L463.063 249.361ZM462.459 248.806H461.516V246.725H462.29C462.837 246.725 463.221 246.826 463.441 246.996C463.661 247.16 463.712 247.375 463.712 247.766C463.712 248.478 463.271 248.807 462.454 248.807L462.459 248.806ZM309.386 200.863H310.154V194.702H312.186V193.932H307.354V194.702H309.387V200.863H309.386ZM314.042 196.234C314.042 195.635 314.042 195.143 313.998 194.866C314.049 195.193 314.162 195.415 314.212 195.578L316.572 200.863H316.949L319.315 195.528C319.378 195.364 319.429 195.149 319.535 194.866C319.485 195.415 319.485 195.855 319.485 196.19V200.856H320.303V193.932H319.315L317.176 198.712C317.125 198.883 316.955 199.216 316.848 199.595H316.785C316.741 199.374 316.628 199.154 316.471 198.776L314.332 193.933H313.225V200.869H313.998V196.241L314.042 196.234Z" fill="white"/>
<defs>
<linearGradient id="paint0_linear_6_10" x1="126.063" y1="417.964" x2="156.049" y2="400.246" gradientUnits="userSpaceOnUse">
<stop stop-color="#909CA9" stop-opacity="0"/>
<stop offset="1" stop-color="#EDEDEE"/>
</linearGradient>
<linearGradient id="paint1_linear_6_10" x1="126.75" y1="83.9252" x2="150.877" y2="83.9252" gradientUnits="userSpaceOnUse">
<stop stop-color="#939FAB" stop-opacity="0"/>
<stop offset="1" stop-color="#DCDEE1"/>
</linearGradient>
<radialGradient id="paint2_radial_6_10" cx="0" cy="0" r="1" gradientUnits="userSpaceOnUse" gradientTransform="translate(248.498 194.582) rotate(-171.457) scale(31.1072 62.2298)">
<stop stop-color="white"/>
<stop offset="1" stop-color="white"/>
</radialGradient>
</defs>
</svg>
